<svg xmlns="http://www.w3.org/2000/svg" viewBox="0 0 132.05 120.26">
<defs>
<style type="text/css">@import url('https://fonts.googleapis.com/css?family=Montserrat');</style>
<style>.cls-1{fill:#2e2a30;}.cls-2{fill:#f9a51a;}.cls-3{fill:#fbdf42;}.cls-4{fill:#f37521;}</style></defs><title>Fichier 1</title><g id="Calque_2" data-name="Calque 2"><g id="Calque_1-2" data-name="Calque 1"><g id="Calque_1-2-2" data-name="Calque 1-2-2"><path class="cls-1" d="M120.72,11.31c-9.91-5.92-21.07-7.87-32.17-10-2.47-.46-5-.73-7.5-1h-.73c-6.69-.7-28.45,0-28.45,0C39.06,1.86,26.36,4,14.55,9.57,5.45,13.87-.19,20.65,0,31.26A33.68,33.68,0,0,0,4,41.93c3,4.67,3.25,10,2.9,15.4-1.08,17-.33,34-.09,50.92.11,7.46,4.46,11.86,11.91,11.9q47.22.21,94.42,0c7.74,0,12.08-4.41,12.17-12.17.2-17,1-33.94-.09-50.91a28,28,0,0,1,3.45-16.28C135.23,29.48,132.06,18.1,120.72,11.31Zm5,21a5.25,5.25,0,0,1-.46,1.91c-7.38,10.86-6,23.16-5.92,35.26s0,24.32-.11,36.48c0,6.45-1.51,8.23-7.78,8.24q-45.45.14-90.93,0c-6.27,0-7.77-1.77-7.78-8.27,0-16-.11-32,.19-48,.13-7.51-.75-14.56-4.88-21-.86-1.35-1.1-3.1-1.62-4.66h0C4.93,24.57,8.82,19.59,15.07,16c8.81-5,18.64-6.82,28.45-8.5,21-3.6,41.68-1.88,62.11,3.78a42.37,42.37,0,0,1,13.57,6c5.11,3.62,7.89,8.43,6.51,15Z"/><path class="cls-2" d="M125.71,32.28a5.25,5.25,0,0,1-.46,1.91c-7.38,10.86-6,23.16-5.92,35.26s0,24.32-.11,36.48c0,6.45-1.51,8.23-7.78,8.24q-45.45.14-90.93,0c-6.27,0-7.77-1.77-7.78-8.27,0-16-.11-32,.19-47.95.13-7.51-.75-14.56-4.88-21-.86-1.35-1.1-3.1-1.62-4.66,1.41-10,7.54-15.4,17-17.76A173.65,173.65,0,0,1,55.9,10c14.54-.81,28.84-.57,43.1,2.28,3.26.65,6.47,1.54,9.7,2.29C118.21,16.77,124.32,22.27,125.71,32.28Z"/><path class="cls-3" d="M125.71,32.28c-1.21-2.15-2.49-4.26-3.64-6.44-4.73-9-13.91-9.6-22.19-11.27A145.69,145.69,0,0,0,60.4,11.93c-12.43.88-24.72,1.6-36.89,4.56C15.76,18.34,11.09,22.93,8,29.8a16.61,16.61,0,0,1-1.61,2.47C4.89,24.52,8.78,19.54,15,16c8.81-5,18.64-6.82,28.45-8.5,21-3.6,41.68-1.88,62.11,3.78a42.37,42.37,0,0,1,13.57,6C124.31,20.93,127.09,25.74,125.71,32.28Z"/><path class="cls-4" d="M114.87,101.15c.27,6.57-.85,8.14-6.43,8-22-.36-43.93,1.84-65.9.91-6-.25-11.94-.69-17.91-.93-5.39-.22-7.88-2.9-8.11-8.16,5.62,3.63,11.79,4.25,18.12,4.25,22,0,44,.06,66-.1C105.49,105.14,110.62,105.3,114.87,101.15Z"/></g></g></g></svg>